<?xml version="1.0" encoding="iso-8859-1"?>
<!-- Generator: Adobe Illustrator 18.0.0, SVG Export Plug-In . SVG Version: 6.00 Build 0)  -->
<!DOCTYPE svg PUBLIC "-//W3C//DTD SVG 1.1//EN" "http://www.w3.org/Graphics/SVG/1.1/DTD/svg11.dtd">
<svg version="1.1" id="Capa_1" xmlns="http://www.w3.org/2000/svg" xmlns:xlink="http://www.w3.org/1999/xlink" x="0px" y="0px"
	 viewBox="0 0 297 297" style="enable-background:new 0 0 297 297;" xml:space="preserve">
<g>
	<path d="M245.136,88.118h-6.363c-9.588,0-17.389,7.802-17.389,17.391v57.262c0,4.45-3.608,8.059-8.059,8.059
		c-3.049,0.029-30.111,1.122-30.111,30.112c0,4.45-3.608,8.059-8.059,8.059c-4.45,0-8.059-3.608-8.059-8.059
		c0-11.012,2.732-19.37,6.732-25.706H68.7v44.795c0,28.992,27.064,30.084,30.15,30.114c4.421,0.042,8.021,3.638,8.021,8.059v32.582
		h98.395v-32.582c0-4.451,3.608-8.059,8.059-8.059c20.245,0,34.599-7.982,42.663-23.724c6.382-12.459,6.534-25.375,6.535-25.504
		V105.51C262.524,95.92,254.724,88.118,245.136,88.118z"/>
	<path d="M286.927,6.213H10.073C4.51,6.213,0,10.723,0,16.286v134.313c0,5.563,4.51,10.073,10.073,10.073h180.563
		c5.302-2.651,10.525-4.39,14.63-5.131v-8.132H46.732c-1.989,0-3.908-0.736-5.388-2.066l-26.669-23.976
		c-1.7-1.529-2.671-3.707-2.671-5.993V51.511c0-2.286,0.971-4.464,2.671-5.993l26.669-23.975c1.479-1.33,3.399-2.066,5.388-2.066
		h203.535c1.989,0,3.908,0.736,5.388,2.066l26.668,23.975c1.7,1.529,2.671,3.707,2.671,5.993v63.864
		c0,2.286-0.971,4.464-2.671,5.993l-3.682,3.31v35.995h8.285c5.563,0,10.073-4.51,10.073-10.073V16.286
		C297,10.723,292.49,6.213,286.927,6.213z"/>
	<path d="M49.822,35.594l-21.7,19.508v56.681l21.7,19.508h155.445V105.51c0-18.477,15.031-33.509,33.506-33.509h6.363
		c9.269,0,17.67,3.785,23.741,9.889V55.102l-21.699-19.508H49.822z M82.015,91.502H48.772c-4.45,0-8.059-3.608-8.059-8.059
		s3.608-8.059,8.059-8.059h33.242c4.45,0,8.059,3.608,8.059,8.059S86.465,91.502,82.015,91.502z M148.5,116.685
		c-18.359,0-33.242-14.883-33.242-33.242S130.141,50.2,148.5,50.2c18.359,0,33.242,14.883,33.242,33.242
		S166.859,116.685,148.5,116.685z"/>
</g>
<g>
</g>
<g>
</g>
<g>
</g>
<g>
</g>
<g>
</g>
<g>
</g>
<g>
</g>
<g>
</g>
<g>
</g>
<g>
</g>
<g>
</g>
<g>
</g>
<g>
</g>
<g>
</g>
<g>
</g>
</svg>
