<?xml version="1.0" encoding="iso-8859-1"?>
<!-- Generator: Adobe Illustrator 19.1.0, SVG Export Plug-In . SVG Version: 6.00 Build 0)  -->
<svg version="1.1" id="Capa_1" xmlns="http://www.w3.org/2000/svg" xmlns:xlink="http://www.w3.org/1999/xlink" x="0px" y="0px"
	 viewBox="0 0 488.7 488.7" style="enable-background:new 0 0 488.7 488.7;" xml:space="preserve">
<g>
	<g>
		<g>
			<path d="M362.6,236.3c5.4,4.7,13.6,4.4,18.8-0.7c4.9-4.9,5.4-12.7,1.3-18.1l0,0l-0.2-0.2c-0.1-0.2-0.3-0.4-0.5-0.5l-34.1-40.7
				c-1.5-1.7-2.3-3.9-2.5-6.2l-5-76.5l0,0c-0.6-7.1-6.5-12.6-13.8-12.6c-7.1,0-12.9,5.3-13.7,12.2l0,0v0.1c0,0.3,0,0.6-0.1,0.9
				l-5.5,84.1c-0.1,0.5-0.1,1.1-0.1,1.7v0.2l0,0c0,0.1,0,0.2,0,0.3c0,0.2,0,0.3,0,0.5c-0.1,5.1,1.8,10.1,5.7,14
				c0.8,0.8,1.7,1.5,2.6,2.2L362.6,236.3L362.6,236.3z"/>
		</g>
		<g>
			<path d="M327.8,16.7c-70.5,0-130.5,45.6-152.1,108.9c14,1.6,27.6,4.7,40.8,9.2c17.2-44.8,60.6-76.7,111.4-76.7
				c65.8,0,119.3,53.5,119.3,119.3c0,59.5-43.8,109-100.9,117.9c0.9,7.8,1.4,15.7,1.4,23.6c0,6.1-0.3,12.1-0.8,18.1
				c79.7-9.4,141.8-77.4,141.8-159.6C488.6,88.8,416.5,16.7,327.8,16.7z"/>
		</g>
		<g>
			<g>
				<path d="M153,166C68.5,166,0,234.5,0,319s68.5,153,153,153s153-68.5,153-153S237.5,166,153,166z M206.3,396.4
					c-4.6,2.1-9.4,3.8-14.3,5.2c-18.6,5.1-37.3,5.3-55.8-0.7c-22.4-7.3-37.3-22.5-46.1-43.9c-1.7-4.1-2.8-8.5-4.1-12.8H68.4
					c-2.9,0-5.3-2.4-5.3-5.3v-11.8c0-2.9,2.4-5.3,5.3-5.3H83c0-3.3,0-6.4,0-9.6H68.4c-2.9,0-5.3-2.4-5.3-5.3v-11.8
					c0-2.9,2.4-5.3,5.3-5.3h18.5l0.6-1.8c5-15.8,13.5-29.3,26.7-39.5c10.5-8.1,22.6-12.6,35.5-14.6c18.5-3,36.3-0.4,53.6,6.3
					c1.1,0.4,2.2,0.9,3.2,1.6c4.2,2.5,5.2,5.6,3.4,10c-1.9,4.7-3.9,9.4-6,14c-1.8,4-4.3,5.2-8.6,4.3c-5.8-1.3-11.6-3.1-17.5-4.3
					c-12.4-2.5-24.6-2.6-36.6,2.1c-10.3,4.1-16.6,11.9-20.9,21.8c0,0.1-0.1,0.2-0.1,0.4h36.1c2.9,0,5.3,2.4,5.3,5.3v11.8
					c0,2.9-2.4,5.3-5.3,5.3h-41.1c0,3.1,0,6.3,0,9.6h41.1c2.9,0,5.3,2.4,5.3,5.3v11.8c0,2.9-2.4,5.3-5.3,5.3h-37.5
					c4.5,12.9,11.9,22.9,25.7,27.3c11.1,3.5,22.2,3.3,33.4,0.9c5.8-1.2,11.5-3,17.3-4.3c4.5-1,7,0.2,8.9,4.4
					c2.1,4.7,4.1,9.4,6.1,14.2C211.9,391,210.8,394.4,206.3,396.4z"/>
			</g>
		</g>
	</g>
</g>
<g>
</g>
<g>
</g>
<g>
</g>
<g>
</g>
<g>
</g>
<g>
</g>
<g>
</g>
<g>
</g>
<g>
</g>
<g>
</g>
<g>
</g>
<g>
</g>
<g>
</g>
<g>
</g>
<g>
</g>
</svg>
