<?xml version="1.0" encoding="iso-8859-1"?>
<!-- Generator: Adobe Illustrator 19.0.0, SVG Export Plug-In . SVG Version: 6.00 Build 0)  -->
<svg version="1.1" id="Layer_1" xmlns="http://www.w3.org/2000/svg" xmlns:xlink="http://www.w3.org/1999/xlink" x="0px" y="0px"
	 viewBox="0 0 511.999 511.999" style="enable-background:new 0 0 511.999 511.999;" xml:space="preserve">
<g>
	<g>
		<polygon points="449.495,346.032 404.096,391.43 387.801,375.135 366.293,396.643 404.096,434.447 471.003,367.54 		"/>
	</g>
</g>
<g>
	<g>
		<path d="M487.171,321.537V173.42v-30.417v-90.63h-56.814V33.784H399.94v18.589H87.233V33.784H56.815v18.589H0v90.63v30.417
			v244.635h331.398c13.412,35.135,47.46,60.16,87.249,60.16c51.475,0,93.352-41.877,93.352-93.352
			C512,360.445,502.572,338.19,487.171,321.537z M30.417,82.79h26.398v18.589h30.417V82.79H399.94v18.589h30.417V82.79h26.397
			v60.213H30.417V82.79z M326.757,368.361c-0.96,5.359-1.461,10.873-1.461,16.503c0,0.884,0.015,1.764,0.04,2.642
			c0,0.043-0.001,0.086,0.001,0.131H30.417V173.42h426.337v126.206c-3.371-1.51-6.833-2.81-10.362-3.908
			c-0.01-0.003-0.019-0.006-0.028-0.009c-0.679-0.211-1.361-0.414-2.044-0.609c-0.103-0.029-0.208-0.059-0.311-0.088
			c-0.608-0.171-1.219-0.338-1.831-0.497c-0.185-0.048-0.369-0.094-0.554-0.142c-0.547-0.139-1.096-0.274-1.647-0.403
			c-0.253-0.06-0.507-0.117-0.761-0.173c-0.496-0.112-0.992-0.221-1.488-0.324c-0.312-0.065-0.626-0.126-0.939-0.188
			c-0.45-0.089-0.9-0.177-1.352-0.26c-0.363-0.066-0.728-0.127-1.092-0.189c-0.412-0.07-0.822-0.141-1.235-0.205
			c-0.405-0.063-0.812-0.12-1.218-0.177c-0.38-0.054-0.76-0.11-1.142-0.16c-0.435-0.057-0.872-0.105-1.308-0.156
			c-0.36-0.042-0.72-0.086-1.081-0.124c-0.454-0.048-0.91-0.086-1.367-0.127c-0.348-0.031-0.695-0.066-1.043-0.093
			c-0.459-0.035-0.921-0.062-1.382-0.091c-0.35-0.022-0.699-0.049-1.049-0.067c-0.447-0.023-0.896-0.037-1.344-0.053
			c-0.366-0.013-0.731-0.032-1.098-0.042c-0.441-0.011-0.885-0.012-1.328-0.017c-0.367-0.004-0.734-0.014-1.101-0.014
			c-9.984,0-19.604,1.582-28.631,4.498h-0.302v-30.956h34.257v-30.417h-34.257v-32.889h-30.417v32.889h-35.043v-32.889h-30.417
			v32.889h-35.044v-32.889h-30.417v32.889h-35.044v-32.889h-30.417v32.889h-35.043v-32.889H97.457v32.889H63.2v30.417h34.257v30.956
			H63.2v30.417h34.257v32.889h30.417v-32.889h35.044v32.889h30.417v-32.889h35.044v32.889h30.417v-32.889h35.044v32.889h30.417
			v-32.889h21.652C336.305,338.357,329.566,352.684,326.757,368.361z M293.839,265.051v30.956h-35.044v-30.956h0H293.839z
			 M228.378,265.051v30.956h-35.044v-30.956H228.378z M162.918,265.051v30.956h-0.001h-35.043v-30.956H162.918z M324.255,296.007
			v-30.956h35.043v30.956H324.255z M418.648,447.798c-29.792,0-54.797-20.815-61.283-48.661c-0.243-1.051-0.461-2.107-0.651-3.165
			c-0.023-0.131-0.048-0.262-0.07-0.392c-0.179-1.034-0.328-2.071-0.455-3.111c-0.02-0.167-0.045-0.334-0.064-0.501
			c-0.114-0.996-0.197-1.992-0.263-2.989c-0.013-0.202-0.034-0.401-0.046-0.603c-0.067-1.172-0.103-2.344-0.103-3.513
			c0-34.703,28.233-62.935,62.935-62.935c1.047,0,2.088,0.028,3.123,0.079c0.335,0.016,0.667,0.049,1.002,0.071
			c0.695,0.046,1.389,0.091,2.078,0.158c0.41,0.041,0.817,0.096,1.225,0.145c0.61,0.072,1.221,0.143,1.825,0.232
			c0.425,0.063,0.847,0.14,1.269,0.211c0.587,0.099,1.174,0.199,1.756,0.314c0.412,0.082,0.821,0.174,1.231,0.265
			c0.592,0.13,1.183,0.263,1.769,0.41c0.382,0.095,0.762,0.2,1.143,0.302c0.614,0.166,1.226,0.338,1.833,0.522
			c0.34,0.102,0.676,0.211,1.014,0.319c0.648,0.209,1.293,0.426,1.932,0.655c0.287,0.102,0.574,0.209,0.859,0.316
			c0.687,0.259,1.37,0.527,2.046,0.808c0.232,0.096,0.463,0.194,0.695,0.293c0.726,0.312,1.446,0.638,2.158,0.977
			c0.177,0.084,0.356,0.169,0.533,0.256c0.758,0.37,1.508,0.754,2.249,1.154c0.13,0.07,0.26,0.138,0.389,0.209
			c0.779,0.426,1.546,0.869,2.305,1.327c0.093,0.056,0.187,0.111,0.28,0.167c0.782,0.478,1.551,0.972,2.311,1.482
			c0.071,0.048,0.143,0.094,0.214,0.143c0.768,0.52,1.522,1.059,2.264,1.611c0.064,0.048,0.129,0.093,0.192,0.141
			c0.74,0.555,1.466,1.127,2.18,1.715c0.065,0.054,0.132,0.105,0.196,0.159c0.707,0.585,1.399,1.187,2.08,1.802
			c0.068,0.062,0.137,0.121,0.205,0.182c12.638,11.519,20.583,28.104,20.583,46.511C481.583,419.565,453.35,447.798,418.648,447.798
			z"/>
	</g>
</g>
<g>
</g>
<g>
</g>
<g>
</g>
<g>
</g>
<g>
</g>
<g>
</g>
<g>
</g>
<g>
</g>
<g>
</g>
<g>
</g>
<g>
</g>
<g>
</g>
<g>
</g>
<g>
</g>
<g>
</g>
</svg>
